<svg xmlns="http://www.w3.org/2000/svg" viewBox="0 0 64 64" fill="none">
  <defs>
    <linearGradient id="g" x1="10" y1="10" x2="54" y2="54" gradientUnits="userSpaceOnUse">
      <stop stop-color="#F5F5DC" stop-opacity="0.18"/>
      <stop offset="1" stop-color="#F5F5DC" stop-opacity="0.06"/>
    </linearGradient>
  </defs>
  <rect x="6" y="6" width="52" height="52" rx="18" fill="url(#g)" stroke="rgba(245,245,220,0.18)"/>
  <path d="M22 44V30.8c0-1.4 1.1-2.6 2.6-2.6 1 0 1.9.6 2.3 1.4.4-.9 1.3-1.4 2.3-1.4 1 0 1.9.6 2.3 1.5.4-.9 1.3-1.5 2.4-1.5 1.4 0 2.5 1.2 2.5 2.6V40l3.5 2.1c1.6 1 2.1 3.1 1.1 4.7-.6 1-1.6 1.5-2.7 1.5H30.3c-4.6 0-8.3-3.7-8.3-8.3z" fill="#F5F5DC" fill-opacity="0.92"/>
  <path d="M25.8 28.2v9.6" stroke="#0A0A0A" stroke-opacity="0.35" stroke-width="2" stroke-linecap="round"/>
  <path d="M30.4 28.2v9.8" stroke="#0A0A0A" stroke-opacity="0.35" stroke-width="2" stroke-linecap="round"/>
  <path d="M35 28.6V39" stroke="#0A0A0A" stroke-opacity="0.35" stroke-width="2" stroke-linecap="round"/>
</svg>
